{
  "accessors": [
    {
      "bufferView": 3,
      "componentType": 5126,
      "count": 974,
      "max": [
        0.08527050912380219,
        1.713243842124939,
        0.10256418585777283
      ],
      "min": [
        -0.08730389922857285,
        1.5297925472259521,
        -0.07837401330471039
      ],
      "type": "VEC3"
    },
    {
      "bufferView": 3,
      "byteOffset": 11688,
      "componentType": 5126,
      "count": 974,
      "max": [
        0.9942965507507324,
        0.999718427658081,
        0.9997884035110474
      ],
      "min": [
        -0.9942867159843445,
        -0.9989010095596313,
        -0.9995499849319458
      ],
      "type": "VEC3"
    },
    {
      "bufferView": 2,
      "componentType": 5126,
      "count": 974,
      "max": [
        0.993452787399292,
        0.9978522062301636
      ],
      "min": [
        0.2632892429828644,
        0.042801618576049805
      ],
      "type": "VEC2"
    },
    {
      "bufferView": 1,
      "componentType": 5125,
      "count": 4572,
      "type": "SCALAR"
    },
    {
      "bufferView": 3,
      "byteOffset": 23376,
      "componentType": 5126,
      "count": 974,
      "max": [
        0.08626159280538559,
        1.7142435312271118,
        0.10355905443429947
      ],
      "min": [
        -0.08829817175865173,
        1.5297179222106934,
        -0.0793735682964325
      ],
      "type": "VEC3"
    },
    {
      "bufferView": 3,
      "byteOffset": 35064,
      "componentType": 5126,
      "count": 974,
      "max": [
        0.9942728877067566,
        0.9989029765129089,
        0.9995535016059875
      ],
      "min": [
        -0.9944100975990295,
        -0.9997215867042542,
        -0.9997935891151428
      ],
      "type": "VEC3"
    },
    {
      "bufferView": 2,
      "byteOffset": 7792,
      "componentType": 5126,
      "count": 974,
      "max": [
        0.993452787399292,
        0.9978522062301636
      ],
      "min": [
        0.2632892429828644,
        0.042801618576049805
      ],
      "type": "VEC2"
    },
    {
      "bufferView": 1,
      "byteOffset": 18288,
      "componentType": 5125,
      "count": 4572,
      "type": "SCALAR"
    },
    {
      "bufferView": 3,
      "byteOffset": 46752,
      "componentType": 5126,
      "count": 590,
      "max": [
        0.15562309324741364,
        1.0624712705612183,
        0.07878435403108597
      ],
      "min": [
        -0.15562321245670319,
        0.7589576840400696,
        -0.09639003872871399
      ],
      "type": "VEC3"
    },
    {
      "bufferView": 3,
      "byteOffset": 53832,
      "componentType": 5126,
      "count": 590,
      "max": [
        0.999641478061676,
        0.5166316032409668,
        0.9986712336540222
      ],
      "min": [
        -0.999213457107544,
        -0.958437979221344,
        -0.9997293949127197
      ],
      "type": "VEC3"
    },
    {
      "bufferView": 2,
      "byteOffset": 15584,
      "componentType": 5126,
      "count": 590,
      "max": [
        0.9595380425453186,
        0.5430125594139099
      ],
      "min": [
        0.004610717296600342,
        0.006137780845165253
      ],
      "type": "VEC2"
    },
    {
      "bufferView": 1,
      "byteOffset": 36576,
      "componentType": 5125,
      "count": 3066,
      "type": "SCALAR"
    },
    {
      "bufferView": 3,
      "byteOffset": 60912,
      "componentType": 5126,
      "count": 5976,
      "max": [
        0.260707825422287,
        1.7064794301986694,
        0.17565126717090607
      ],
      "min": [
        -0.26070788502693176,
        0.002927239052951336,
        -0.08990152180194855
      ],
      "type": "VEC3"
    },
    {
      "bufferView": 3,
      "byteOffset": 132624,
      "componentType": 5126,
      "count": 5976,
      "max": [
        0.999750018119812,
        0.9995294809341431,
        0.9999802708625793
      ],
      "min": [
        -0.9997500777244568,
        -0.9999841451644897,
        -0.9999955892562866
      ],
      "type": "VEC3"
    },
    {
      "bufferView": 2,
      "byteOffset": 20304,
      "componentType": 5126,
      "count": 5976,
      "max": [
        0.9899689555168152,
        0.9995697140693665
      ],
      "min": [
        0.00043027964420616627,
        0.0004302342713344842
      ],
      "type": "VEC2"
    },
    {
      "bufferView": 1,
      "byteOffset": 48840,
      "componentType": 5125,
      "count": 28824,
      "type": "SCALAR"
    },
    {
      "bufferView": 3,
      "byteOffset": 204336,
      "componentType": 5126,
      "count": 5744,
      "max": [
        0.26170626282691956,
        1.707479476928711,
        0.17644314467906952
      ],
      "min": [
        -0.26170632243156433,
        0.0019278319086879492,
        -0.09088709950447083
      ],
      "type": "VEC3"
    },
    {
      "bufferView": 3,
      "byteOffset": 273264,
      "componentType": 5126,
      "count": 5744,
      "max": [
        0.9997853636741638,
        0.9998756647109985,
        0.9999960660934448
      ],
      "min": [
        -0.9997853636741638,
        -0.999535858631134,
        -1.0
      ],
      "type": "VEC3"
    },
    {
      "bufferView": 2,
      "byteOffset": 68112,
      "componentType": 5126,
      "count": 5744,
      "max": [
        0.9899689555168152,
        0.9995697140693665
      ],
      "min": [
        0.00043027964420616627,
        0.0004302342713344842
      ],
      "type": "VEC2"
    },
    {
      "bufferView": 1,
      "byteOffset": 164136,
      "componentType": 5125,
      "count": 27456,
      "type": "SCALAR"
    },
    {
      "bufferView": 5,
      "componentType": 5126,
      "count": 81,
      "max": [
        1.0,
        1.0,
        0.9965923428535461,
        0.0,
        0.9997222423553467,
        1.0,
        1.0000026226043701,
        0.0,
        1.0000001192092896,
        1.000000238418579,
        1.0000123977661133,
        0.0,
        1.4441677331924438,
        1.3206664323806763,
        0.5498886108398438,
        1.0
      ],
      "min": [
        -0.9988828301429749,
        -1.0,
        -0.9965924024581909,
        0.0,
        -0.9997211694717407,
        -0.9995970129966736,
        -0.99992835521698,
        0.0,
        -1.0000001192092896,
        -1.0,
        -0.9997799396514893,
        0.0,
        -1.4441694021224976,
        -1.4685622453689575,
        -1.4040470123291016,
        1.0
      ],
      "type": "MAT4"
    },
    {
      "bufferView": 0,
      "componentType": 5123,
      "count": 974,
      "type": "VEC4"
    },
    {
      "bufferView": 4,
      "componentType": 5126,
      "count": 974,
      "max": [
        1.0,
        0.0,
        0.0,
        0.0
      ],
      "min": [
        1.0,
        0.0,
        0.0,
        0.0
      ],
      "type": "VEC4"
    },
    {
      "bufferView": 0,
      "byteOffset": 7792,
      "componentType": 5123,
      "count": 974,
      "type": "VEC4"
    },
    {
      "bufferView": 4,
      "byteOffset": 15584,
      "componentType": 5126,
      "count": 974,
      "max": [
        1.0,
        0.0,
        0.0,
        0.0
      ],
      "min": [
        1.0,
        0.0,
        0.0,
        0.0
      ],
      "type": "VEC4"
    },
    {
      "bufferView": 0,
      "byteOffset": 15584,
      "componentType": 5123,
      "count": 590,
      "type": "VEC4"
    },
    {
      "bufferView": 4,
      "byteOffset": 31168,
      "componentType": 5126,
      "count": 590,
      "max": [
        1.0,
        0.4754617512226105,
        0.2929653525352478,
        0.2019900530576706
      ],
      "min": [
        0.2991887331008911,
        0.0,
        0.0,
        0.0
      ],
      "type": "VEC4"
    },
    {
      "bufferView": 0,
      "byteOffset": 20304,
      "componentType": 5123,
      "count": 5976,
      "type": "VEC4"
    },
    {
      "bufferView": 4,
      "byteOffset": 40608,
      "componentType": 5126,
      "count": 5976,
      "max": [
        1.0,
        0.4995470345020294,
        0.32283976674079895,
        0.20403647422790527
      ],
      "min": [
        0.2974914312362671,
        0.0,
        0.0,
        0.0
      ],
      "type": "VEC4"
    },
    {
      "bufferView": 0,
      "byteOffset": 68112,
      "componentType": 5123,
      "count": 5744,
      "type": "VEC4"
    },
    {
      "bufferView": 4,
      "byteOffset": 136224,
      "componentType": 5126,
      "count": 5744,
      "max": [
        1.0,
        0.4995470345020294,
        0.32283976674079895,
        0.20403647422790527
      ],
      "min": [
        0.2974914312362671,
        0.0,
        0.0,
        0.0
      ],
      "type": "VEC4"
    }
  ],
  "asset": {
    "extras": {
      "author": "Antropik (https://sketchfab.com/Antropik)",
      "license": "CC-BY-4.0 (http://creativecommons.org/licenses/by/4.0/)",
      "source": "https://sketchfab.com/3d-models/mash-burnedead-mashle-magic-and-muscles-7d89ec9a7b5e47068dbfdd4c9e002fac",
      "title": "Mash Burnedead \"Mashle: Magic and Muscles\""
    },
    "generator": "Sketchfab-16.15.0",
    "version": "2.0"
  },
  "bufferViews": [
    {
      "buffer": 0,
      "byteLength": 114064,
      "byteStride": 8,
      "name": "shortBufferViews",
      "target": 34962
    },
    {
      "buffer": 0,
      "byteLength": 273960,
      "byteOffset": 114064,
      "name": "floatBufferViews",
      "target": 34963
    },
    {
      "buffer": 0,
      "byteLength": 114064,
      "byteOffset": 388024,
      "byteStride": 8,
      "name": "floatBufferViews",
      "target": 34962
    },
    {
      "buffer": 0,
      "byteLength": 342192,
      "byteOffset": 502088,
      "byteStride": 12,
      "name": "floatBufferViews",
      "target": 34962
    },
    {
      "buffer": 0,
      "byteLength": 228128,
      "byteOffset": 844280,
      "byteStride": 16,
      "name": "floatBufferViews",
      "target": 34962
    },
    {
      "buffer": 0,
      "byteLength": 5184,
      "byteOffset": 1072408,
      "name": "floatBufferViews"
    }
  ],
  "buffers": [
    {
      "byteLength": 1077592,
      "uri": "scene.bin"
    }
  ],
  "extensionsUsed": [
    "KHR_materials_unlit"
  ],
  "images": [
    {
      "uri": "textures/Material_baseColor.png"
    },
    {
      "uri": "textures/Material.002_baseColor.png"
    }
  ],
  "materials": [
    {
      "doubleSided": true,
      "extensions": {
        "KHR_materials_unlit": {}
      },
      "name": "Material",
      "pbrMetallicRoughness": {
        "baseColorTexture": {
          "index": 0
        },
        "metallicFactor": 0.0
      }
    },
    {
      "extensions": {
        "KHR_materials_unlit": {}
      },
      "name": "Material.001",
      "pbrMetallicRoughness": {
        "baseColorFactor": [
          0.0,
          0.0,
          0.0,
          1.0
        ],
        "metallicFactor": 0.0
      }
    },
    {
      "doubleSided": true,
      "extensions": {
        "KHR_materials_unlit": {}
      },
      "name": "Material.002",
      "pbrMetallicRoughness": {
        "baseColorTexture": {
          "index": 1
        },
        "metallicFactor": 0.0
      }
    }
  ],
  "meshes": [
    {
      "name": "Object_0",
      "primitives": [
        {
          "attributes": {
            "JOINTS_0": 21,
            "NORMAL": 1,
            "POSITION": 0,
            "TEXCOORD_0": 2,
            "WEIGHTS_0": 22
          },
          "indices": 3,
          "material": 0,
          "mode": 4
        }
      ]
    },
    {
      "name": "Object_1",
      "primitives": [
        {
          "attributes": {
            "JOINTS_0": 23,
            "NORMAL": 5,
            "POSITION": 4,
            "TEXCOORD_0": 6,
            "WEIGHTS_0": 24
          },
          "indices": 7,
          "material": 1,
          "mode": 4
        }
      ]
    },
    {
      "name": "Object_2",
      "primitives": [
        {
          "attributes": {
            "JOINTS_0": 25,
            "NORMAL": 9,
            "POSITION": 8,
            "TEXCOORD_0": 10,
            "WEIGHTS_0": 26
          },
          "indices": 11,
          "material": 0,
          "mode": 4
        }
      ]
    },
    {
      "name": "Object_3",
      "primitives": [
        {
          "attributes": {
            "JOINTS_0": 27,
            "NORMAL": 13,
            "POSITION": 12,
            "TEXCOORD_0": 14,
            "WEIGHTS_0": 28
          },
          "indices": 15,
          "material": 2,
          "mode": 4
        }
      ]
    },
    {
      "name": "Object_4",
      "primitives": [
        {
          "attributes": {
            "JOINTS_0": 29,
            "NORMAL": 17,
            "POSITION": 16,
            "TEXCOORD_0": 18,
            "WEIGHTS_0": 30
          },
          "indices": 19,
          "material": 1,
          "mode": 4
        }
      ]
    }
  ],
  "nodes": [
    {
      "children": [
        1
      ],
      "matrix": [
        1.0,
        0.0,
        0.0,
        0.0,
        0.0,
        2.220446049250313e-16,
        -1.0,
        0.0,
        0.0,
        1.0,
        2.220446049250313e-16,
        0.0,
        0.0,
        0.0,
        0.0,
        1.0
      ],
      "name": "Sketchfab_model"
    },
    {
      "children": [
        2
      ],
      "name": "root"
    },
    {
      "children": [
        3
      ],
      "matrix": [
        1.0,
        0.0,
        0.0,
        0.0,
        0.0,
        2.220446049250313e-16,
        1.0,
        0.0,
        0.0,
        -1.0,
        2.220446049250313e-16,
        0.0,
        0.0,
        0.0,
        0.0,
        1.0
      ],
      "name": "GLTF_SceneRootNode"
    },
    {
      "children": [
        4
      ],
      "name": "metarig_83"
    },
    {
      "children": [
        5,
        7,
        8,
        10,
        12,
        13,
        6,
        9,
        11
      ],
      "name": "GLTF_created_0"
    },
    {
      "children": [
        14,
        15,
        84,
        88,
        92,
        93
      ],
      "name": "GLTF_created_0_rootJoint"
    },
    {
      "name": "body.001_80"
    },
    {
      "mesh": 0,
      "name": "Object_7",
      "skin": 0
    },
    {
      "mesh": 1,
      "name": "Object_8",
      "skin": 0
    },
    {
      "name": "body.003_81"
    },
    {
      "mesh": 2,
      "name": "Object_10",
      "skin": 0
    },
    {
      "name": "body.004_82"
    },
    {
      "mesh": 3,
      "name": "Object_12",
      "skin": 0
    },
    {
      "mesh": 4,
      "name": "Object_13",
      "skin": 0
    },
    {
      "name": "spine.006_0",
      "rotation": [
        0.007608088199049234,
        0.001443752204068005,
        2.611401396279689e-05,
        0.999970018863678
      ],
      "scale": [
        0.9999873638153076,
        0.9999999403953552,
        0.9999812245368958
      ],
      "translation": [
        -3.300747266621329e-05,
        0.9077035784721375,
        -0.001790435635484755
      ]
    },
    {
      "children": [
        16,
        20,
        24
      ],
      "name": "spine.007_69",
      "rotation": [
        -0.09326402842998505,
        -1.1868969806982932e-07,
        1.1117940346139221e-08,
        0.9956414103507996
      ],
      "translation": [
        -2.0161502689575173e-08,
        0.06674309819936752,
        -0.024925947189331055
      ]
    },
    {
      "children": [
        17,
        18
      ],
      "name": "thigh.L_4",
      "rotation": [
        -0.99652498960495,
        -0.009962141513824463,
        0.005118310917168856,
        0.08253724128007889
      ],
      "scale": [
        0.9999995827674866,
        1.0000003576278687,
        0.9999619126319885
      ],
      "translation": [
        0.0792742669582367,
        0.9008963108062744,
        0.20785954594612122
      ]
    },
    {
      "name": "shin.L_1",
      "rotation": [
        0.047804057598114014,
        0.00035762874176725745,
        0.012886228039860725,
        0.9987736344337463
      ],
      "scale": [
        1.0,
        1.0000008344650269,
        0.9999996423721313
      ],
      "translation": [
        1.436455310255269e-08,
        0.46858853101730347,
        -5.194284113940739e-09
      ]
    },
    {
      "children": [
        19
      ],
      "name": "Bone.L_3",
      "rotation": [
        -0.9995352625846863,
        0.028511011973023415,
        0.0006567300879396498,
        0.010767417028546333
      ],
      "scale": [
        1.0000032186508179,
        1.000000238418579,
        1.0000004768371582
      ],
      "translation": [
        0.008502315729856491,
        0.08898252248764038,
        0.003117096144706011
      ]
    },
    {
      "name": "Bone.001.L_2",
      "rotation": [
        -0.0004698694683611393,
        -1.7062340702977963e-05,
        0.042939141392707825,
        0.9990776181221008
      ],
      "scale": [
        0.9999999403953552,
        1.0,
        1.0000001192092896
      ],
      "translation": [
        1.7347186798133407e-08,
        0.04351012036204338,
        1.6511307876498904e-09
      ]
    },
    {
      "children": [
        21,
        22
      ],
      "name": "thigh.R_8",
      "rotation": [
        -0.9965254664421082,
        0.009962384589016438,
        -0.005115141160786152,
        0.08253230899572372
      ],
      "scale": [
        0.9999999403953552,
        1.0000003576278687,
        1.0000122785568237
      ],
      "translation": [
        -0.07927411049604416,
        0.9008963108062744,
        0.2078595906496048
      ]
    },
    {
      "name": "shin.R_5",
      "rotation": [
        0.047807227820158005,
        -0.0003563520440366119,
        -0.012887313030660152,
        0.9987733960151672
      ],
      "scale": [
        1.0000001192092896,
        1.000000238418579,
        1.0000007152557373
      ],
      "translation": [
        -5.132121394524347e-09,
        0.4685884416103363,
        -2.1618278278623393e-09
      ]
    },
    {
      "children": [
        23
      ],
      "name": "Bone.R_7",
      "rotation": [
        -0.9995352625846863,
        -0.028510984033346176,
        -0.0006518098525702953,
        0.010767211206257343
      ],
      "scale": [
        1.0000030994415283,
        1.000000238418579,
        1.0000004768371582
      ],
      "translation": [
        -0.008502318523824215,
        0.08898259699344635,
        0.0031170754227787256
      ]
    },
    {
      "name": "Bone.001.R_6",
      "rotation": [
        -0.0004655088414438069,
        2.1821382688358426e-05,
        -0.04293832927942276,
        0.9990776181221008
      ],
      "scale": [
        0.9999998807907104,
        1.0,
        0.9999998807907104
      ],
      "translation": [
        -9.289912838994496e-09,
        0.04351017251610756,
        -9.055309280192603e-10
      ]
    },
    {
      "children": [
        25,
        82,
        83
      ],
      "name": "spine_68",
      "rotation": [
        6.332993507385254e-08,
        9.103828801926284e-15,
        -1.5987211554602254e-14,
        1.0
      ],
      "translation": [
        4.164627398495213e-08,
        0.9242026209831238,
        0.17467713356018066
      ]
    },
    {
      "children": [
        26
      ],
      "name": "spine.001_65",
      "rotation": [
        0.14292408525943756,
        -1.1798548626984484e-07,
        -5.1113630661348e-08,
        0.9897336363792419
      ],
      "scale": [
        1.0,
        1.0,
        0.9999999403953552
      ],
      "translation": [
        -2.8096807073595045e-15,
        0.11351153999567032,
        3.1165141578526345e-09
      ]
    },
    {
      "children": [
        27
      ],
      "name": "spine.002_64",
      "rotation": [
        -0.12339872866868973,
        1.1829817481157079e-07,
        4.413081100551608e-08,
        0.9923571944236755
      ],
      "scale": [
        1.0,
        0.9999998211860657,
        0.9999998807907104
      ],
      "translation": [
        1.7763568394002505e-15,
        0.12008262425661087,
        1.1175880665348359e-08
      ]
    },
    {
      "children": [
        28,
        30,
        56
      ],
      "name": "spine.003_63",
      "rotation": [
        0.2584089934825897,
        2.303208646026178e-07,
        1.8388109502935623e-14,
        0.9660356044769287
      ],
      "translation": [
        -1.2434497875801753e-14,
        0.12873010337352753,
        -7.45057571194252e-09
      ]
    },
    {
      "children": [
        29
      ],
      "name": "spine.004_10",
      "rotation": [
        -0.038395240902900696,
        -1.1912138120351301e-07,
        -4.577070722433518e-09,
        0.9992626309394836
      ],
      "scale": [
        1.0,
        1.0000001192092896,
        1.0
      ],
      "translation": [
        -1.2212453270876722e-14,
        0.11213415861129761,
        3.352760913344355e-08
      ]
    },
    {
      "name": "spine.005_9",
      "rotation": [
        -0.035898227244615555,
        -1.7490559510707077e-14,
        -3.8291898914655145e-15,
        0.9993554949760437
      ],
      "scale": [
        1.0,
        0.9999999403953552,
        1.0
      ],
      "translation": [
        -1.269893923259394e-15,
        0.03895141929388046,
        -2.62516550719738e-08
      ]
    },
    {
      "children": [
        31,
        55
      ],
      "name": "shoulder.L_36",
      "rotation": [
        -0.7165728807449341,
        -0.41996070742607117,
        -0.2962321639060974,
        0.4715960919857025
      ],
      "scale": [
        1.0000001192092896,
        1.0,
        1.0
      ],
      "translation": [
        0.02813735604286194,
        0.07237540930509567,
        0.07743752747774124
      ]
    },
    {
      "children": [
        32,
        53
      ],
      "name": "upper_arm.L_34",
      "rotation": [
        -0.33759984374046326,
        0.6409485936164856,
        -0.5171815156936646,
        0.45577916502952576
      ],
      "scale": [
        1.0000001192092896,
        1.000000238418579,
        1.0000001192092896
      ],
      "translation": [
        0.004258899949491024,
        0.1523093283176422,
        -0.014195594936609268
      ]
    },
    {
      "children": [
        33
      ],
      "name": "forearm.L_31",
      "rotation": [
        0.11472012847661972,
        0.12149088829755783,
        -0.06250490993261337,
        0.9839575290679932
      ],
      "scale": [
        0.9999999403953552,
        1.0,
        1.0
      ],
      "translation": [
        -1.8068774920720898e-08,
        0.27054378390312195,
        -2.7911193356544572e-09
      ]
    },
    {
      "children": [
        34,
        38,
        41,
        45,
        49
      ],
      "name": "forearm.L.001_30",
      "rotation": [
        -0.06004698574542999,
        0.0006624602829106152,
        -0.023835809901356697,
        0.9979107975959778
      ],
      "scale": [
        0.9999999403953552,
        0.9999999403953552,
        0.9999998807907104
      ],
      "translation": [
        -4.457159263893118e-08,
        0.2577327787876129,
        4.55651161246351e-09
      ]
    },
    {
      "children": [
        35
      ],
      "name": "palm.01.L_14",
      "rotation": [
        0.04458518326282501,
        0.7441155910491943,
        0.06045885011553764,
        0.6638139486312866
      ],
      "scale": [
        0.9999999403953552,
        1.0,
        1.0000001192092896
      ],
      "translation": [
        -0.005979903507977724,
        0.031530216336250305,
        0.014415109530091286
      ]
    },
    {
      "children": [
        36
      ],
      "name": "f_index.01.L_13",
      "rotation": [
        -0.02449088543653488,
        -0.028021100908517838,
        -0.03155887871980667,
        0.9988088607788086
      ],
      "scale": [
        0.9999999403953552,
        1.0,
        1.0
      ],
      "translation": [
        -8.81787354245489e-09,
        0.05183035135269165,
        6.045715394975559e-08
      ]
    },
    {
      "children": [
        37
      ],
      "name": "f_index.02.L_12",
      "rotation": [
        0.23177696764469147,
        -0.1144803911447525,
        -0.023153113201260567,
        0.965731680393219
      ],
      "scale": [
        0.9999997615814209,
        0.9999998807907104,
        0.9999998807907104
      ],
      "translation": [
        -7.816674418847924e-09,
        0.04790063574910164,
        -1.5855469825964974e-08
      ]
    },
    {
      "name": "f_index.03.L_11",
      "rotation": [
        0.048604995012283325,
        0.05135279893875122,
        0.004636474885046482,
        0.9974862933158875
      ],
      "scale": [
        1.0000001192092896,
        1.0000001192092896,
        1.0
      ],
      "translation": [
        -4.026279754043571e-09,
        0.02501840516924858,
        -6.77945388716239e-09
      ]
    },
    {
      "children": [
        39
      ],
      "name": "thumb.01.L_17",
      "rotation": [
        -0.05915159359574318,
        -0.9393467307090759,
        -0.28626978397369385,
        0.17938347160816193
      ],
      "scale": [
        0.9999998211860657,
        0.9999999403953552,
        1.0
      ],
      "translation": [
        -0.0030337763018906116,
        0.026668468490242958,
        0.02225012704730034
      ]
    },
    {
      "children": [
        40
      ],
      "name": "thumb.02.L_16",
      "rotation": [
        0.15255075693130493,
        -0.02432035654783249,
        -0.00019084087398368865,
        0.9879963397979736
      ],
      "scale": [
        0.9999999403953552,
        0.9999998807907104,
        0.9999998807907104
      ],
      "translation": [
        1.8891763708950293e-09,
        0.031141240149736404,
        1.0242200865206996e-08
      ]
    },
    {
      "name": "thumb.03.L_15",
      "rotation": [
        -0.005999206565320492,
        -0.07712642103433609,
        0.01008090190589428,
        0.9969523549079895
      ],
      "scale": [
        0.9999999403953552,
        0.9999997019767761,
        0.9999998807907104
      ],
      "translation": [
        -2.962201506306883e-08,
        0.028963077813386917,
        -2.289738620930848e-09
      ]
    },
    {
      "children": [
        42
      ],
      "name": "palm.02.L_21",
      "rotation": [
        0.03330894932150841,
        0.7143155336380005,
        0.053411755710840225,
        0.6969870924949646
      ],
      "scale": [
        0.9999999403953552,
        1.0,
        0.9999999403953552
      ],
      "translation": [
        -0.006443343590945005,
        0.03401277959346771,
        0.0005244343774393201
      ]
    },
    {
      "children": [
        43
      ],
      "name": "f_middle.01.L_20",
      "rotation": [
        0.07283808290958405,
        -0.016736341640353203,
        -0.04966362193226814,
        0.9959659576416016
      ],
      "scale": [
        0.9999999403953552,
        0.9999999403953552,
        1.0
      ],
      "translation": [
        -8.902567572022235e-09,
        0.05325952172279358,
        -5.523367008208879e-08
      ]
    },
    {
      "children": [
        44
      ],
      "name": "f_middle.02.L_19",
      "rotation": [
        0.18140427768230438,
        -0.09422226250171661,
        -0.011170584708452225,
        0.9788206815719604
      ],
      "scale": [
        0.9999998211860657,
        1.0,
        0.9999998807907104
      ],
      "translation": [
        1.0291303809140118e-08,
        0.04786812514066696,
        -1.5372537021107746e-08
      ]
    },
    {
      "name": "f_middle.03.L_18",
      "rotation": [
        0.07067811489105225,
        0.013576039113104343,
        0.018660010769963264,
        0.9972322583198547
      ],
      "scale": [
        0.9999998211860657,
        1.0,
        0.9999998807907104
      ],
      "translation": [
        2.5009303517009585e-09,
        0.032418251037597656,
        4.913756868063501e-08
      ]
    },
    {
      "children": [
        46
      ],
      "name": "palm.03.L_25",
      "rotation": [
        -0.013533090241253376,
        0.6572909951210022,
        0.014453895390033722,
        0.7533767223358154
      ],
      "scale": [
        0.9999997615814209,
        0.9999996423721313,
        0.9999998807907104
      ],
      "translation": [
        -0.004530519712716341,
        0.03425874188542366,
        -0.010612820275127888
      ]
    },
    {
      "children": [
        47
      ],
      "name": "f_ring.01.L_24",
      "rotation": [
        0.13840146362781525,
        -0.0011416672496125102,
        -0.038152843713760376,
        0.9896404147148132
      ],
      "scale": [
        0.9999998211860657,
        0.9999998211860657,
        1.0000001192092896
      ],
      "translation": [
        7.832037240973477e-09,
        0.05324559286236763,
        7.916771949112444e-08
      ]
    },
    {
      "children": [
        48
      ],
      "name": "f_ring.02.L_23",
      "rotation": [
        0.18789036571979523,
        -0.023305783048272133,
        -0.0013959822244942188,
        0.9819124937057495
      ],
      "scale": [
        1.0000001192092896,
        1.0,
        1.0
      ],
      "translation": [
        -7.805124546678144e-09,
        0.045611217617988586,
        3.282972826923469e-08
      ]
    },
    {
      "name": "f_ring.03.L_22",
      "rotation": [
        0.10766270011663437,
        0.026518287137150764,
        0.03872842341661453,
        0.993078887462616
      ],
      "scale": [
        1.0,
        0.9999999403953552,
        1.0
      ],
      "translation": [
        -8.786706473529193e-09,
        0.02987653575837612,
        -4.849124835004659e-08
      ]
    },
    {
      "children": [
        50
      ],
      "name": "palm.04.L_29",
      "rotation": [
        -0.041371122002601624,
        0.6232594847679138,
        -0.0016925991512835026,
        0.7809181213378906
      ],
      "scale": [
        1.0,
        0.9999998807907104,
        1.0
      ],
      "translation": [
        -0.00040108643588609993,
        0.03425740823149681,
        -0.02591920644044876
      ]
    },
    {
      "children": [
        51
      ],
      "name": "f_pinky.01.L_28",
      "rotation": [
        0.12317372113466263,
        -0.04680297151207924,
        -0.01944771595299244,
        0.9910900592803955
      ],
      "scale": [
        1.0000001192092896,
        1.0,
        0.9999998807907104
      ],
      "translation": [
        -3.3164444523947623e-09,
        0.05016660317778587,
        2.9983375782194344e-08
      ]
    },
    {
      "children": [
        52
      ],
      "name": "f_pinky.02.L_27",
      "rotation": [
        0.2624608278274536,
        0.10841911286115646,
        -0.00026534803328104317,
        0.9588323831558228
      ],
      "translation": [
        -2.4571362722269896e-09,
        0.03501145914196968,
        1.0233597080855361e-08
      ]
    },
    {
      "name": "f_pinky.03.L_26",
      "rotation": [
        0.10285299271345139,
        -0.030661115422844887,
        -0.02480231411755085,
        0.9939144849777222
      ],
      "scale": [
        0.9999999403953552,
        0.9999998211860657,
        0.9999999403953552
      ],
      "translation": [
        -3.606274612266702e-09,
        0.02436591498553753,
        2.0089764518615993e-08
      ]
    },
    {
      "children": [
        54
      ],
      "name": "Bone.L.001_33",
      "rotation": [
        -0.05768446624279022,
        0.029883267357945442,
        -0.9978129267692566,
        0.012204659171402454
      ],
      "scale": [
        1.0000003576278687,
        1.0000001192092896,
        1.000003695487976
      ],
      "translation": [
        2.2635795176029205e-06,
        0.10361728817224503,
        -0.007288437336683273
      ]
    },
    {
      "name": "Bone.001.L.001_32",
      "rotation": [
        0.036455873399972916,
        0.024714907631278038,
        0.18522875010967255,
        0.9817079305648804
      ],
      "scale": [
        1.0,
        1.0,
        0.9999998807907104
      ],
      "translation": [
        -4.96986451992143e-08,
        0.05976666882634163,
        -5.721292328786376e-10
      ]
    },
    {
      "name": "Bone.002.L.001_35",
      "rotation": [
        0.6903530359268188,
        -0.1747722178697586,
        0.6813955903053284,
        0.16901938617229462
      ],
      "scale": [
        0.9999983906745911,
        0.9999997019767761,
        0.9999998807907104
      ],
      "translation": [
        -0.027787385508418083,
        0.09737556427717209,
        0.040644340217113495
      ]
    },
    {
      "children": [
        57,
        81
      ],
      "name": "shoulder.R_62",
      "rotation": [
        -0.7165731191635132,
        0.41996049880981445,
        0.2962318956851959,
        0.4715961515903473
      ],
      "scale": [
        0.9999999403953552,
        1.0,
        1.0000001192092896
      ],
      "translation": [
        -0.028137387707829475,
        0.07237529754638672,
        0.07743755728006363
      ]
    },
    {
      "children": [
        58,
        79
      ],
      "name": "upper_arm.R_60",
      "rotation": [
        -0.33759987354278564,
        -0.6409485936164856,
        0.5171816349029541,
        0.4557790160179138
      ],
      "translation": [
        -0.004258926957845688,
        0.1523093432188034,
        -0.014195602387189865
      ]
    },
    {
      "children": [
        59
      ],
      "name": "forearm.R_57",
      "rotation": [
        0.11472012847661972,
        -0.12149087339639664,
        0.06250478327274323,
        0.9839575290679932
      ],
      "scale": [
        0.9999998807907104,
        1.0,
        1.0000001192092896
      ],
      "translation": [
        -3.0456167365855435e-08,
        0.2705438733100891,
        4.160507494077592e-10
      ]
    },
    {
      "children": [
        60,
        64,
        67,
        71,
        75
      ],
      "name": "forearm.R.001_56",
      "rotation": [
        -0.0600469745695591,
        -0.0006624541711062193,
        0.023835942149162292,
        0.9979107975959778
      ],
      "scale": [
        0.9999999403953552,
        1.0,
        0.9999999403953552
      ],
      "translation": [
        1.2187767239879577e-08,
        0.25773292779922485,
        -1.3786274344340654e-08
      ]
    },
    {
      "children": [
        61
      ],
      "name": "palm.01.R_40",
      "rotation": [
        0.0445847287774086,
        -0.7441158890724182,
        -0.060459159314632416,
        0.663813591003418
      ],
      "scale": [
        1.0,
        1.0,
        1.0000001192092896
      ],
      "translation": [
        0.005979834124445915,
        0.031530171632766724,
        0.014415091834962368
      ]
    },
    {
      "children": [
        62
      ],
      "name": "f_index.01.R_39",
      "rotation": [
        -0.0244905948638916,
        0.028021592646837234,
        0.031558822840452194,
        0.9988088607788086
      ],
      "scale": [
        1.000000238418579,
        1.000000238418579,
        1.000000238418579
      ],
      "translation": [
        -1.5015304555276998e-08,
        0.05183020234107971,
        -4.378880191779899e-08
      ]
    },
    {
      "children": [
        63
      ],
      "name": "f_index.02.R_38",
      "rotation": [
        0.23177701234817505,
        0.11448032408952713,
        0.023153088986873627,
        0.965731680393219
      ],
      "scale": [
        1.0,
        1.0000001192092896,
        1.000000238418579
      ],
      "translation": [
        -6.604201074900118e-10,
        0.04790065810084343,
        6.721974532553077e-09
      ]
    },
    {
      "name": "f_index.03.R_37",
      "rotation": [
        0.04860498011112213,
        -0.05135294049978256,
        -0.004636493045836687,
        0.9974862933158875
      ],
      "scale": [
        1.0,
        0.9999998807907104,
        0.9999999403953552
      ],
      "translation": [
        -3.62858432190194e-09,
        0.02501843497157097,
        -2.3101724977436788e-08
      ]
    },
    {
      "children": [
        65
      ],
      "name": "thumb.01.R_43",
      "rotation": [
        -0.05915013328194618,
        0.9393466114997864,
        0.2862696349620819,
        0.17938485741615295
      ],
      "scale": [
        0.9999999403953552,
        0.9999999403953552,
        0.9999998807907104
      ],
      "translation": [
        0.0030336661729961634,
        0.026668591424822807,
        0.022250156849622726
      ]
    },
    {
      "children": [
        66
      ],
      "name": "thumb.02.R_42",
      "rotation": [
        0.15255047380924225,
        0.024321964010596275,
        0.00018976780120283365,
        0.9879963397979736
      ],
      "scale": [
        0.9999999403953552,
        1.0,
        1.0
      ],
      "translation": [
        -9.313225746154785e-09,
        0.03114120103418827,
        2.2351741790771484e-08
      ]
    },
    {
      "name": "thumb.03.R_41",
      "rotation": [
        -0.005999655928462744,
        0.07712779939174652,
        -0.010081974789500237,
        0.9969522356987
      ],
      "scale": [
        1.0000001192092896,
        1.0,
        1.0
      ],
      "translation": [
        -3.058473652117755e-08,
        0.02896299585700035,
        -2.0652888288452687e-09
      ]
    },
    {
      "children": [
        68
      ],
      "name": "palm.02.R_47",
      "rotation": [
        0.03330839052796364,
        -0.7143160700798035,
        -0.053412165492773056,
        0.6969866156578064
      ],
      "scale": [
        0.9999998807907104,
        1.0,
        1.0
      ],
      "translation": [
        0.006443229503929615,
        0.03401290997862816,
        0.0005244459607638419
      ]
    },
    {
      "children": [
        69
      ],
      "name": "f_middle.01.R_46",
      "rotation": [
        0.07283860445022583,
        0.016736969351768494,
        0.0496634803712368,
        0.995965838432312
      ],
      "scale": [
        0.9999998807907104,
        1.0000001192092896,
        1.0
      ],
      "translation": [
        -6.088094473000183e-09,
        0.053259726613759995,
        5.044152473487884e-08
      ]
    },
    {
      "children": [
        70
      ],
      "name": "f_middle.02.R_45",
      "rotation": [
        0.1814042180776596,
        0.09422213584184647,
        0.011170570738613605,
        0.9788206815719604
      ],
      "scale": [
        1.0,
        1.0000001192092896,
        0.9999999403953552
      ],
      "translation": [
        -7.724762163263676e-09,
        0.04786815121769905,
        -2.856979719467745e-08
      ]
    },
    {
      "name": "f_middle.03.R_44",
      "rotation": [
        0.07067838311195374,
        -0.013575904071331024,
        -0.018660014495253563,
        0.9972322583198547
      ],
      "scale": [
        0.9999999403953552,
        1.0000001192092896,
        1.0
      ],
      "translation": [
        1.8168800908213711e-09,
        0.03241823986172676,
        -4.289667288048804e-09
      ]
    },
    {
      "children": [
        72
      ],
      "name": "palm.03.R_51",
      "rotation": [
        -0.013533568009734154,
        -0.6572912931442261,
        -0.014454328455030918,
        0.7533764839172363
      ],
      "scale": [
        0.9999998807907104,
        0.9999998807907104,
        0.9999998807907104
      ],
      "translation": [
        0.004530450329184532,
        0.034258753061294556,
        -0.01061280257999897
      ]
    },
    {
      "children": [
        73
      ],
      "name": "f_ring.01.R_50",
      "rotation": [
        0.138402059674263,
        0.0011420598020777106,
        0.038152772933244705,
        0.9896403551101685
      ],
      "scale": [
        0.9999998211860657,
        0.9999998211860657,
        1.0
      ],
      "translation": [
        2.1426136420643616e-09,
        0.05324551463127136,
        -1.2720097197771452e-09
      ]
    },
    {
      "children": [
        74
      ],
      "name": "f_ring.02.R_49",
      "rotation": [
        0.18789039552211761,
        0.02330583520233631,
        0.001395971397869289,
        0.9819124937057495
      ],
      "scale": [
        1.0,
        0.9999998807907104,
        0.9999999403953552
      ],
      "translation": [
        3.125181669005883e-09,
        0.045611102133989334,
        -3.416934646338632e-08
      ]
    },
    {
      "name": "f_ring.03.R_48",
      "rotation": [
        0.10766225308179855,
        -0.026518775150179863,
        -0.038728512823581696,
        0.993078887462616
      ],
      "scale": [
        1.0,
        1.0000001192092896,
        1.0000001192092896
      ],
      "translation": [
        1.2826106843277785e-09,
        0.029876448214054108,
        -3.173149210056181e-08
      ]
    },
    {
      "children": [
        76
      ],
      "name": "palm.04.R_55",
      "rotation": [
        -0.04137159883975983,
        -0.6232599020004272,
        0.0016921467613428831,
        0.7809178233146667
      ],
      "scale": [
        0.9999998807907104,
        0.9999997615814209,
        0.9999998211860657
      ],
      "translation": [
        0.0004009798576589674,
        0.03425736725330353,
        -0.02591918222606182
      ]
    },
    {
      "children": [
        77
      ],
      "name": "f_pinky.01.R_54",
      "rotation": [
        0.123174287378788,
        0.046803370118141174,
        0.01944771409034729,
        0.9910899996757507
      ],
      "scale": [
        1.0000001192092896,
        1.0,
        0.9999999403953552
      ],
      "translation": [
        4.3948524819370505e-09,
        0.05016660317778587,
        -2.2624901063750258e-08
      ]
    },
    {
      "children": [
        78
      ],
      "name": "f_pinky.02.R_53",
      "rotation": [
        0.2624608278274536,
        -0.10841911286115646,
        0.0002652829571161419,
        0.9588323831558228
      ],
      "scale": [
        1.0000001192092896,
        0.9999999403953552,
        1.0
      ],
      "translation": [
        -1.54274122365905e-08,
        0.0350114069879055,
        5.479349951542645e-08
      ]
    },
    {
      "name": "f_pinky.03.R_52",
      "rotation": [
        0.102852962911129,
        0.030661093071103096,
        0.024802295491099358,
        0.9939144849777222
      ],
      "scale": [
        0.9999998807907104,
        0.9999998807907104,
        1.0
      ],
      "translation": [
        8.47774028756021e-09,
        0.024365782737731934,
        5.900580646311937e-08
      ]
    },
    {
      "children": [
        80
      ],
      "name": "Bone.R.001_59",
      "rotation": [
        -0.05768439173698425,
        -0.02988327108323574,
        0.9978129267692566,
        0.012204697355628014
      ],
      "scale": [
        1.000000238418579,
        1.0000001192092896,
        1.0000038146972656
      ],
      "translation": [
        -2.249859790026676e-06,
        0.10361750423908234,
        -0.007288421504199505
      ]
    },
    {
      "name": "Bone.001.R.001_58",
      "rotation": [
        0.03645588457584381,
        -0.024714818224310875,
        -0.18522869050502777,
        0.9817079305648804
      ],
      "scale": [
        1.0000001192092896,
        0.9999999403953552,
        0.9999998807907104
      ],
      "translation": [
        -1.0033190278591064e-08,
        0.05976654589176178,
        -3.912003165851274e-09
      ]
    },
    {
      "name": "Bone.002.R.001_61",
      "rotation": [
        0.6903530359268188,
        0.17477241158485413,
        -0.681395411491394,
        0.1690194308757782
      ],
      "scale": [
        0.9999995231628418,
        0.9999999403953552,
        0.9999998807907104
      ],
      "translation": [
        0.027787353843450546,
        0.09737561643123627,
        0.040644578635692596
      ]
    },
    {
      "name": "Bone.002.L_66",
      "rotation": [
        0.09322220087051392,
        -0.002805259544402361,
        0.02994823455810547,
        0.9951908588409424
      ],
      "scale": [
        0.9999999403953552,
        0.9999999403953552,
        0.9999999403953552
      ],
      "translation": [
        0.07180090248584747,
        0.01858222298324108,
        0.03987462818622589
      ]
    },
    {
      "name": "Bone.002.R_67",
      "rotation": [
        0.09322211146354675,
        0.0028055128641426563,
        -0.02994840033352375,
        0.9951908588409424
      ],
      "scale": [
        0.9999999403953552,
        1.0,
        0.9999999403953552
      ],
      "translation": [
        -0.0718008428812027,
        0.01858222298324108,
        0.039874665439128876
      ]
    },
    {
      "children": [
        85
      ],
      "name": "shin.L.001_73",
      "rotation": [
        -0.7071027755737305,
        0.0023724425118416548,
        -0.0023724425118416548,
        0.7071028351783752
      ],
      "scale": [
        1.0000001192092896,
        1.0,
        1.0000001192092896
      ],
      "translation": [
        0.08456740528345108,
        0.06670273840427399,
        -0.011686593294143677
      ]
    },
    {
      "children": [
        86,
        87
      ],
      "name": "foot.L_72",
      "rotation": [
        -0.9788494110107422,
        -0.023059461265802383,
        -0.010302683338522911,
        0.2030169814825058
      ],
      "scale": [
        0.9999999403953552,
        0.9999998807907104,
        0.9999973177909851
      ],
      "translation": [
        3.8612390085290826e-07,
        -3.1147860681812745e-06,
        -3.417876257572061e-07
      ]
    },
    {
      "name": "toe.L_70",
      "rotation": [
        0.0007518397178500891,
        0.9879757165908813,
        -0.15435373783111572,
        0.00885729305446148
      ],
      "scale": [
        1.0,
        0.9999998211860657,
        0.9999998211860657
      ],
      "translation": [
        -4.8626764836967595e-09,
        0.11879120767116547,
        6.4341412198132275e-09
      ]
    },
    {
      "name": "heel.02.L_71",
      "rotation": [
        0.6763477921485901,
        0.7079952955245972,
        -0.13864624500274658,
        0.14857161045074463
      ],
      "translation": [
        -0.03122747130692005,
        0.00588570348918438,
        0.049771539866924286
      ]
    },
    {
      "children": [
        89
      ],
      "name": "shin.R.001_77",
      "rotation": [
        -0.7071027755737305,
        -0.0023723614867776632,
        0.0023725235369056463,
        0.7071028351783752
      ],
      "scale": [
        1.0000001192092896,
        1.0,
        1.0000001192092896
      ],
      "translation": [
        -0.08456746488809586,
        0.06670273840427399,
        -0.011686593294143677
      ]
    },
    {
      "children": [
        90,
        91
      ],
      "name": "foot.R_76",
      "rotation": [
        -0.978849470615387,
        0.023059573024511337,
        0.010302661918103695,
        0.20301693677902222
      ],
      "scale": [
        1.0000001192092896,
        0.9999998807907104,
        0.999997615814209
      ],
      "translation": [
        1.2206243127366179e-07,
        9.725642939883983e-07,
        -1.5924392471333704e-08
      ]
    },
    {
      "name": "toe.R_74",
      "rotation": [
        0.000751847168430686,
        -0.9879757761955261,
        0.15435373783111572,
        0.008857175707817078
      ],
      "scale": [
        1.0,
        0.9999996423721313,
        0.9999998211860657
      ],
      "translation": [
        4.0745362639427185e-10,
        0.11879121512174606,
        3.754394128918648e-09
      ]
    },
    {
      "name": "heel.02.R_75",
      "rotation": [
        0.6763479113578796,
        -0.7079952955245972,
        0.13864603638648987,
        0.1485714614391327
      ],
      "scale": [
        0.9999999403953552,
        1.0,
        0.9999999403953552
      ],
      "translation": [
        0.0312274768948555,
        0.005885692313313484,
        0.04977152869105339
      ]
    },
    {
      "name": "thigh.L.001_78",
      "rotation": [
        0.7070940732955933,
        -0.0042326669208705425,
        -0.0042326669208705425,
        0.707094132900238
      ],
      "scale": [
        1.0,
        0.9999997615814209,
        1.0
      ],
      "translation": [
        0.08792712539434433,
        0.5221697092056274,
        0.4984702169895172
      ]
    },
    {
      "name": "thigh.R.001_79",
      "rotation": [
        0.7070940732955933,
        0.0042326669208705425,
        0.0042326669208705425,
        0.707094132900238
      ],
      "scale": [
        1.0,
        0.9999997615814209,
        1.0
      ],
      "translation": [
        -0.08792722225189209,
        0.5221697092056274,
        0.4984702169895172
      ]
    }
  ],
  "samplers": [
    {
      "magFilter": 9729,
      "minFilter": 9987,
      "wrapS": 10497,
      "wrapT": 10497
    }
  ],
  "scene": 0,
  "scenes": [
    {
      "name": "Sketchfab_Scene",
      "nodes": [
        0
      ]
    }
  ],
  "skins": [
    {
      "inverseBindMatrices": 20,
      "joints": [
        5,
        14,
        15,
        16,
        17,
        18,
        19,
        20,
        21,
        22,
        23,
        24,
        25,
        26,
        27,
        28,
        29,
        30,
        31,
        32,
        33,
        34,
        35,
        36,
        37,
        38,
        39,
        40,
        41,
        42,
        43,
        44,
        45,
        46,
        47,
        48,
        49,
        50,
        51,
        52,
        53,
        54,
        55,
        56,
        57,
        58,
        59,
        60,
        61,
        62,
        63,
        64,
        65,
        66,
        67,
        68,
        69,
        70,
        71,
        72,
        73,
        74,
        75,
        76,
        77,
        78,
        79,
        80,
        81,
        82,
        83,
        84,
        85,
        86,
        87,
        88,
        89,
        90,
        91,
        92,
        93
      ],
      "skeleton": 5
    }
  ],
  "textures": [
    {
      "sampler": 0,
      "source": 0
    },
    {
      "sampler": 0,
      "source": 1
    }
  ]
}
